<svg xmlns="http://www.w3.org/2000/svg" width="500" height="500" preserveAspectRatio="none" style="display: block;" version="1.1" viewBox="0 0 2000 2000"><defs><linearGradient id="r" x1="396.772" x2="485.276" y1="1586.65" y2="1597.97" gradientUnits="userSpaceOnUse"><stop class="stop0" offset="0" stop-color="rgb(191,12,13)" stop-opacity="1"/><stop class="stop1" offset="1" stop-color="rgb(255,46,47)" stop-opacity="1"/></linearGradient><linearGradient id="q" x1="1109.72" x2="1201.17" y1="1586.46" y2="1597.45" gradientUnits="userSpaceOnUse"><stop class="stop0" offset="0" stop-color="rgb(193,11,12)" stop-opacity="1"/><stop class="stop1" offset="1" stop-color="rgb(255,47,50)" stop-opacity="1"/></linearGradient><linearGradient id="p" x1="550.535" x2="684.445" y1="1588.17" y2="1596.17" gradientUnits="userSpaceOnUse"><stop class="stop0" offset="0" stop-color="rgb(191,7,12)" stop-opacity="1"/><stop class="stop1" offset="1" stop-color="rgb(255,52,55)" stop-opacity="1"/></linearGradient><linearGradient id="o" x1="1267.64" x2="1376.36" y1="1588.84" y2="1596.16" gradientUnits="userSpaceOnUse"><stop class="stop0" offset="0" stop-color="rgb(188,6,9)" stop-opacity="1"/><stop class="stop1" offset="1" stop-color="rgb(255,52,55)" stop-opacity="1"/></linearGradient><linearGradient id="n" x1="1443.65" x2="1556.31" y1="1590.01" y2="1594.9" gradientUnits="userSpaceOnUse"><stop class="stop0" offset="0" stop-color="rgb(187,7,9)" stop-opacity="1"/><stop class="stop1" offset="1" stop-color="rgb(255,54,59)" stop-opacity="1"/></linearGradient><linearGradient id="m" x1="580.735" x2="783.582" y1="1163.26" y2="1181.25" gradientUnits="userSpaceOnUse"><stop class="stop0" offset="0" stop-color="rgb(13,47,81)" stop-opacity="1"/><stop class="stop1" offset="1" stop-color="rgb(10,81,148)" stop-opacity="1"/></linearGradient><linearGradient id="l" x1="745.326" x2="861.56" y1="1589.98" y2="1597.37" gradientUnits="userSpaceOnUse"><stop class="stop0" offset="0" stop-color="rgb(191,9,10)" stop-opacity="1"/><stop class="stop1" offset="1" stop-color="rgb(255,50,51)" stop-opacity="1"/></linearGradient><linearGradient id="k" x1="922.665" x2="1035.07" y1="1588.9" y2="1599.74" gradientUnits="userSpaceOnUse"><stop class="stop0" offset="0" stop-color="rgb(199,12,15)" stop-opacity="1"/><stop class="stop1" offset="1" stop-color="rgb(255,49,53)" stop-opacity="1"/></linearGradient><linearGradient id="j" x1="744.441" x2="876.264" y1="1373.5" y2="1371.73" gradientUnits="userSpaceOnUse"><stop class="stop0" offset="0" stop-color="rgb(182,0,5)" stop-opacity="1"/><stop class="stop1" offset="1" stop-color="rgb(255,54,57)" stop-opacity="1"/></linearGradient><linearGradient id="i" x1="1046.58" x2="1171.1" y1="1267.75" y2="1271.14" gradientUnits="userSpaceOnUse"><stop class="stop0" offset="0" stop-color="rgb(181,0,6)" stop-opacity="1"/><stop class="stop1" offset="1" stop-color="rgb(255,56,58)" stop-opacity="1"/></linearGradient><linearGradient id="h" x1="1146.08" x2="1308.89" y1="1318.07" y2="1322.96" gradientUnits="userSpaceOnUse"><stop class="stop0" offset="0" stop-color="rgb(6,43,81)" stop-opacity="1"/><stop class="stop1" offset="1" stop-color="rgb(11,81,143)" stop-opacity="1"/></linearGradient><linearGradient id="g" x1="420.347" x2="764.606" y1="1358.86" y2="1370.53" gradientUnits="userSpaceOnUse"><stop class="stop0" offset="0" stop-color="rgb(6,43,80)" stop-opacity="1"/><stop class="stop1" offset="1" stop-color="rgb(13,86,153)" stop-opacity="1"/></linearGradient><linearGradient id="f" x1="841.284" x2="1128.49" y1="1306.94" y2="1338.55" gradientUnits="userSpaceOnUse"><stop class="stop0" offset="0" stop-color="rgb(198,6,16)" stop-opacity="1"/><stop class="stop1" offset="1" stop-color="rgb(255,55,54)" stop-opacity="1"/></linearGradient><linearGradient id="e" x1="1312.26" x2="1590.33" y1="1309.76" y2="1323.64" gradientUnits="userSpaceOnUse"><stop class="stop0" offset="0" stop-color="rgb(6,42,78)" stop-opacity="1"/><stop class="stop1" offset="1" stop-color="rgb(12,83,147)" stop-opacity="1"/></linearGradient><linearGradient id="d" x1="1077.69" x2="1533.24" y1="712.397" y2="716.668" gradientUnits="userSpaceOnUse"><stop class="stop0" offset="0" stop-color="rgb(8,45,81)" stop-opacity="1"/><stop class="stop1" offset="1" stop-color="rgb(13,84,149)" stop-opacity="1"/></linearGradient><linearGradient id="c" x1="458.03" x2="1322.8" y1="570.118" y2="495.235" gradientUnits="userSpaceOnUse"><stop class="stop0" offset="0" stop-color="rgb(171,0,3)" stop-opacity="1"/><stop class="stop1" offset="1" stop-color="rgb(255,46,48)" stop-opacity="1"/></linearGradient><linearGradient id="b" x1="795.197" x2="988.387" y1="682.848" y2="699.215" gradientUnits="userSpaceOnUse"><stop class="stop0" offset="0" stop-color="rgb(7,47,86)" stop-opacity="1"/><stop class="stop1" offset="1" stop-color="rgb(13,86,152)" stop-opacity="1"/></linearGradient><linearGradient id="a" x1="345.505" x2="1639.77" y1="839.229" y2="787.165" gradientUnits="userSpaceOnUse"><stop class="stop0" offset="0" stop-color="rgb(9,41,73)" stop-opacity="1"/><stop class="stop1" offset="1" stop-color="rgb(12,88,157)" stop-opacity="1"/></linearGradient></defs><path fill="url(#a)" d="M807.74 579.931c.495-29.701-.098-25.656 28.094-34.305 10.715-3.287 22.819-7.451 33.49-11.126l151.566-51.59c13.16-4.393 38.93-15.15 50.94-16.658-.11 14.93.15 30.167.24 45.131.05 7.926-.38 20.925.22 28.408-2.33 29.582-.43 62.085-.19 91.775l.13 122.849-.15 107.487c.09 13.079-.87 29.546.26 42.178 19.8 5.668 42.17 7.397 62.04 11.302 35.23 6.923 71.57 10.866 106.6 16.728l172.99 28.163c25.65 4.327 69.09 13.76 93.83 14.93 3.59 28.617 3.95 61.427 4.43 90.487l-20.91-2.38c-1.42 7.23-4.55 22.92-8.8 29.09-4.8 9.01-9.17 12.9-16.44 20.02 12.05-.64 27.85-.11 40.22-.1l93.68.11c17.65.04 39.84.65 57.01-.45-.31 6.92-.13 11.84.23 18.77-10.31-1.12-31.62.03-42.79.15l-79.23.39-266.71.06-564.881-.72c-114.305.81-228.614.88-342.92.18-3.93-.05-2.42.62-5.006-2.05-1.505-5.09-.679-10.36-.327-15.77 13.214-1.31 31.468-.88 44.883-.86l68.298.1c64.166-.04 132.824-1.35 196.566.75-20.058-14.47-33.886-42.51-38.814-66.14-13.908.65-115.41-1.61-123.23-5.44-1.677-.82-1.836-1.42-2.47-3.18-2.939-8.16-2.805-62.029 1.473-69.949 4.657-8.624 15.853-11.133 24.449-13.878-.935-15.234-1.696-31.079-3.027-46.234l-1.815-1.257c-1.306-15.97-1.055-35.565-1.033-51.633.723-14.262.279-29.295.089-43.632 1.348-3.136 3.57-5.847 5.606-8.617a73 73 0 0 1 1.455-4.108c2.99-7.616 24.186-37.618 30.037-47.333l53.007-89.661c4.246-7.16 19.309-36.625 25.695-39.327 12.879-5.451 30.674-8.749 44.233-13.154 41.582-13.509 84.331-20.426 126.982-29.506Z m-235.617 307.984c3.495 1.437 3.932 1.457 7.722 2.146 37.739.063 80.56-5.74 118.427-8.696 20.487-1.599 50.108-2.433 69.656-6.119.829 19.076-1.451 50.91 1.222 68.396 21.367 1.672 56.113.344 79.123.642 5.646-6.934 11.245-14.014 17.555-20.227 38.382-37.793 95.795-35.9 143.642-20.228 7.21 2.361 14.23 4.775 21.9 4.849 3.32-4.587-9.02-16.794-9.65-26.7-1.54-24.251-1.11-48.507-1.41-72.833q-.975-52.464-1.26-104.936c.03-11.7 2.77-66.238-2.28-72.899-8.37-5.043-37.255-10.135-49.454-12.987-39.772-9.298-84.127-23.776-124.563-27.862-16.454-1.663-49.464 6.277-66.92 8.628-24.26 3.267-51.462 13.735-75.496 19.378-17.961 4.694-38.486 9.736-55.716 16.685-4.683 1.889-8.674 7.534-11.534 11.648 35.437-6.863 66.963-15.541 101.89-24.211 13.852-3.438 27.411-5.095 41.316-7.761 14.677-2.813 28.063-6.062 43.023-7.769-4.246 14.195-11.572 28.873-17.169 43.204-14.342 36.718-27.817 74.845-42.807 111.192-1.281 3.106-37.365 6.177-44.007 7.085l-108.125 15.537c-10.487 1.575-60.483 4.996-60.898 15.261 2.773 1.321 47.167-3.867 53.789-4.513l115.049-11.66c7.354-.786 14.4-.957 21.973-1.594 6.217-.194 15.562-5.412 21.605-3.202 3.076 1.125.628 9.527-.796 11.854-7.761 4.996-196.028 23.94-219.608 25.109-1.928 19.633-.633 35.519-1.645 54.786 7.836-1.268 16.658-2.444 24.547-3.235 13.853-1.388 11.527 12.627 10.899 21.032Z m298.003 164.065c-18.44.46-63.613 1.05-81.319-2.06-5.186 22.02-14.979 50.29-34.554 63.47 12.928-1.91 33.087-1.25 46.791-1.24l74.206.08c9.94 0 19.101-.27 28.986.91l1.864.21 1.117.14c-20.155-16.91-31.299-36-37.091-61.51Z m-161.303-156.406c-3.773 3.678-8.496 7.815-11.151 12.329-8.022 13.634-3.42 31.759 12.963 35.83 14.975-10.836 14.809-20.857 11.972-37.491-4.048-3.872-8.825-9.662-13.784-10.668Z m252.344 197.116-1.503 2.05c12.175 11.36 43.326-19.98 47.166-32.09 5.69-17.93 2.28-37.31-6.43-53.11-2.818-1.93-2.584-1.85-5.973-2.25-4.131 2.89.129 5.47 1.84 9.18 8.723 18.92-2.874 51.2-17.13 64.93-2.142 2.07-14.632 9.19-17.97 11.29Z m215.873 20.55c-27.8-14.76-41.42-45.24-39.43-75.97-10.41-.85-35.68-2.33-44.66-4.62-12.42 30.82-14.77 26.78-47.38 24.09-5.09-.41-10.72-.6-15.83-1.07-6.21 26.85-13.77 39.77-34.208 57.93 19.078-2.59 62.078-1.37 82.468-1.33 30.76.03 68.97-1.02 99.04.97Z m57.05.06c14.56-1.74 33.73-1.08 48.81-1.07l74.85.07c9.27.05 29.59-.31 37.94.78-20.38-15.56-29.88-33.87-33.81-58.8-27.79-3.34-64.08-2.47-89.27-6.55-5.65 25.67-14.37 50.21-37.65 65.03z m-681.728-209.587c-12.45 14.691-21.145 28.951 1.647 40.663 14.404-11.118 16.437-37.432-1.647-40.663Z m911.528 167.267c-6.75 15.42-17.19 16.14-24.92 25.42 14.95-1.2 28.72-18.08 32.26-31.73 1.99-7.66 1.47-10.39.12-17.81-4.64 4.73-2.46 7.5-5.58 13.54-1.7 4.63-1.58 5.53-1.88 10.58Z"/><path fill="rgb(182,181,196)" d="M520.725 811.637c1.348-3.136 3.57-5.847 5.606-8.617-4.089 30.235-.729 69.362-1.607 100.58-.055 1.948-.131 3.072-1.24 4.559l-1.815-1.257c-1.306-15.97-1.055-35.565-1.033-51.633.723-14.262.279-29.295.089-43.632Z m945.355 300.783-2.03.96-1.05-1.16c1.96-5.09 14.71-18.44 19.52-19.82-4.8 9.01-9.17 12.9-16.44 20.02Z"/><path fill="url(#b)" d="M845.478 607.92c35.806 4.887 73.402 14.24 108.241 23.649 9.278 2.506 25.737 6.438 34.069 10.232.926 10.994.422 27.976.361 39.281.083 27.774-.731 55.544-2.438 83.266-16.711-.968-38.388-.372-55.461-.378-47.558-.037-97.481.815-144.795-1.311 6.351-18.041 53.017-147.637 60.023-154.739Z"/><path fill="rgb(112,161,200)" d="m940.977 681.208.427.874c-4.566 4.484-63.032 47.61-69.872 51.071l-1.178-1.261c6.85-11.261 56.95-43.587 70.623-50.684Z m-28.63 8.763c1.723.882 1.159.211 1.774 1.941-21.087 12.652-46.933 32.216-66.474 47.38l-1.555.497-.837-1.089c6.894-10.787 54.248-42.699 67.092-48.729Z"/><path fill="rgb(15,72,125)" d="M756.59 849.62c3.194-.617 4.103-.965 7.397-.502 4.564 3.751 3.084 14.757 3.909 22.844-14.756-.352-26.892-.358-41.667 1.439-2.897.848-2.687.809-5.673.301-4.739-4.421-2.493-12.723.908-16.706 5.49-6.428 26.97-6.325 35.126-7.376Z"/><path fill="rgb(207,222,235)" d="m687.549 659.046 1.461 2.228c-24.515 22.684-48.554 48.133-71.933 72.057-12.237 12.522-24.483 26.977-38.482 37.482 13.036-24.16 84.873-92.132 108.954-111.767Z m31.209-2.849c2.469.985 1.619.128 2.945 2.193a3764 3764 0 0 0-52.544 51.968c-15.923 16.169-27.052 30.93-46.214 43.824 30.588-38.015 59.901-65.265 95.813-97.985Z"/><path fill="rgb(0,0,0)" fill-opacity=".02" d="M1465.77 1060.4c3.12-6.04.94-8.81 5.58-13.54 1.35 7.42 1.87 10.15-.12 17.81-3.54 13.65-17.31 30.53-32.26 31.73 7.73-9.28 18.17-10 24.92-25.42.3-5.05.18-5.95 1.88-10.58Z"/><path fill="rgb(207,222,235)" d="M1465.77 1060.4c-2.13-4.56-.76-16.17-2.64-22.09-1.69-5.34-4.86-10.24-7.53-15.29l.79-.62c9.12 4.68 14.68 14.17 16.77 23.95l-1.81.51c-4.64 4.73-2.46 7.5-5.58 13.54Z m-26.8 36c-3.93 2.33-16.24.81-18.59-2.08 2.96-1.26 12.91-2.88 16.35-3.01 12.22-.45 21.37-19.83 26.33-22.66l.83 2.33c-6.75 15.42-17.19 16.14-24.92 25.42Z m-859.125-206.339c.626.261 5.051 1.175 6.002 1.386-5.955.404-27.943 2.527-31.528.173l.491-1.166c5.476-3.136 9.89-3.9 16.167-4.639l1.146 2.1c3.495 1.437 3.932 1.457 7.722 2.146Z"/><path fill="rgb(94,132,165)" d="M718.758 656.197c4.254-5.037 19.629-18.573 25.544-20.508-.094 3.001-19.288 20.601-22.599 22.701-1.326-2.065-.476-1.208-2.945-2.193Z"/><path fill="rgb(182,181,196)" d="M936.054 1093.82c5.434-.7 20.002-1.81 25.113-1.13l-1.503 2.05-.468 2.38c-6.87 2.36-15.832-1.24-23.142-3.3Z"/><path fill="rgb(94,132,165)" d="M701.776 646.021c-3.59 5.491-7.641 11.06-12.766 15.253l-1.461-2.228a538 538 0 0 1 14.227-13.025Z"/><path fill="url(#c)" d="m514.537 905.14-2.452.405c-9.034-7.067-21.896-54.737-25.22-68.071-70.435-282.542 108.387-554.431 393.829-621.036a555.67 555.67 0 0 1 338.916 30.385c15.5 6.524 40.64 17.427 54.8 26.256 12.9 7.661 27.48 16.157 39.79 24.671a504 504 0 0 1 186.58 235.806c3.37 8.976 18.57 47.856 16.35 53.785-4.35 1.869-17.36-4.262-22.39-6.268l-114.24-46.344a4014 4014 0 0 1-42.1-17.198c-4.69-1.933-15.96-6.226-19.72-8.361l-165.31-66.887c-20.48-8.462-57.18-22.212-75.42-31.565-33.35 11.596-68.88 27.41-102.01 40.234l-134.279 51.663c-7.349 2.82-41.384 13.963-46.88 19.122-1.42 1.332-3.479 20.557-4.489 25.115-49.741 11.615-114.864 25.22-161.29 47.17-26.854 30.443-51.506 87.272-71.053 120.631-18.693 31.902-28.761 50.173-41.25 81.461-3.514 8.802-5.066 53.231-3.414 59.609 2.02 8.515 2.615 40.892 1.252 49.417Z"/><path fill="rgb(254,49,52)" d="M1274.41 273.079c12.9 7.661 27.48 16.157 39.79 24.671a504 504 0 0 1 186.58 235.806c3.37 8.976 18.57 47.856 16.35 53.785-4.35 1.869-17.36-4.262-22.39-6.268l-114.24-46.344a4014 4014 0 0 1-42.1-17.198c-4.69-1.933-15.96-6.226-19.72-8.361 2.6-.376 1.74.036 3.74-1.604.58-8.813-.13-10.056-8.73-13.085.04-2.167.14-2.575.69-4.618-3.02-.407-1.47-.445-4.84 1.564l.01-1.301c3.7-4.12 5.66-.216 11.14-4.66.77-10.839-13.95-5.439-14.57-23.605-.45-13.165 2.37-26.146 2.72-38.943.25-9.178-3-22.171-2.25-32.694 1.05-14.835 8.92-28.049 2.58-42.113-9.01-19.981-30.71-31.656-38.33-54.115-1.27-3.734-2.08-5.078-.46-8.635 3.51-1.854 2.6-1.242 7.17-1.024-2.73-4.816-3.64-5.843-3.14-11.258Z"/><path fill="url(#d)" d="M1078.3 462.837c6.91-2.068 48.77 16.137 57.96 19.501a11507 11507 0 0 1 208.82 78.389l137.24 50.784c16.25 5.963 34.47 11.756 50.33 17.969.34 4.502 1.32 14.03 1.17 18.138 2.82 83.242-1.17 168.303.28 251.707.26 15.195.11 31.418-.45 46.581-.24 8.409-.73 15.172-1.55 23.555-39.42-8.525-82.38-13.493-122.38-20.161l-202.22-34.743-79.77-13.457c-14.69-2.489-34.47-5.262-48.6-8.901-3.61-5.102-3.97-31.58-.08-37.548 3.37-1.373 10.65-.638 14.65-.492 22.54.018 50.03-1.708 72.95-2.421l203.49-8.239c12.01-.545 78.55-1.707 85.88-4.735l-.15-1.276c-13.99-7.769-187.48-21.524-215.19-24.267-32.09-3.176-64.08-7.534-96.18-10.488-20.24-1.862-40.19-2.457-60.35-5.559-3.79-.358-4.58-.002-6.65-2.893-.86-7.889-1.78-48.005.42-54.458l1.38-1.851c5.09-1.903 21.15-1.395 27.3-1.295 97.69 1.583 195.29 3.342 292.99 1.766 14.17-.228 28.38-2.007 42.63-.434 2.75-.045 6.8-.556 9.64-.823 3.03-.608 6.4-.613 7.37-3.702-3.36-2.39-9.97-3.539-14.1-4.243-33.53-5.718-67.43-9.749-101.1-14.498-52.6-7.421-104.92-16.614-157.55-23.661-25.49-3.414-51.11-6.451-76.48-10.708-9.05-1.519-22.57-2.847-31.01-5.458-4.23-6.2-1.58-48.99-.62-58.322 28.09-.043 60.22 4.478 88.5 6.821l199.37 17.112c16.55 1.305 72.04 7.109 86.84 4.007l.88-1.636c-1.39-2.012-1.49-2.705-4.13-3.421-36.41-9.888-74.07-17.68-110.76-25.931l-189.05-43.582c-22.24-5.061-46.96-9.218-68.18-14.32-2.12.054-1.43.104-3.47-.452-2.61-5.049-1.7-48.711-1.75-57.581.08-9.114.03-26.574 1.68-34.774Z m406.19 376.723c-7.49-2.549-19.3-2.865-27.34-3.217l.94 2.718c5.56 2.053 20.65 1.828 26.4.499Z"/><path fill="rgb(15,72,125)" d="M1533.65 945.906c-3.38-4.06-2.22-35.739-2.22-42.87l.48-121.634c.13-40.82-1.14-81.755-.43-122.608.1-5.454-.35-6.971 2.34-11.176 2.82 83.242-1.17 168.303.28 251.707.26 15.195.11 31.418-.45 46.581Z m-455.35-483.069c3.93 16.42-3.4 83.531 3.92 91.674l-.38 1.133c-2.12.054-1.43.104-3.47-.452-2.61-5.049-1.7-48.711-1.75-57.581.08-9.114.03-26.574 1.68-34.774Z"/><path fill="rgb(207,222,235)" d="M1451.86 737.186c6.34.222 5.39 1.391 9.7-3.209 6.66-1.377 21.66 2.475 28.43 4.241-8.89.96-40.75 3.148-47.77-.209 2.75-.045 6.8-.556 9.64-.823Z"/><path fill="rgb(15,72,125)" d="M1077.92 739.823c5.42 8.62-5.2 45.945 6.23 57.351-3.79-.358-4.58-.002-6.65-2.893-.86-7.889-1.78-48.005.42-54.458Z m1.21 152.376c-3.61-5.102-3.97-31.58-.08-37.548 3.37-1.373 10.65-.638 14.65-.492-4.04 2.569-9.32 2.137-14.36 2.636-.2 5.783-1.55 25.297.59 31.105.42 1.15 1.74.768 2.38 4.014z"/><path fill="rgb(207,222,235)" d="M1456.06 641.403c4.12.163 31.14 5.149 34.3 7.977l-.74 1.172c-13.56-1.92-22.97-2.859-36.52-3.698 1.17-1.5.94-1.494 2.65-2.528z"/><path fill="rgb(207,222,235)" fill-opacity=".988" d="M1457.15 836.343c8.04.352 19.85.668 27.34 3.217-5.75 1.329-20.84 1.554-26.4-.499z"/><path fill="url(#e)" d="M1484.76 1144.37c6.35-.87 19.26-.45 26.16-.56 24.86-.36 49.55.23 74.32 2.48 6.57.6 20.5-3.11 23.24 3.24-1.58 3.01-189.13 133.24-213.32 151.8 10.75 11.56 28.95 39.67 39.06 53.37 27.7 37.52 55.16 80.53 83.67 117.08 6.41 8.63 11.62 15.35 18.61 23.58-32.44-3.49-106.08 6.55-131.68-11.15-4.96-3.43-9.26-7.64-13.21-12.18-11.62-13.36-21.66-28.72-32.33-42.89-14.3-18.97-30.41-38.06-42.46-58.56-3.53-6-7.2-13.26-8.12-20.22-1.74-13.17 15.15-103.15 23-112.31 4.37-5.1 9.57-9.65 14.81-13.83 20.26-16.13 42-30.93 62.98-46.16 11.42-8.3 29.41-23.65 41.4-28.71 10.11-4.27 23-4.17 33.87-4.98Z"/><path fill="url(#f)" d="M814.101 1148.45c9.56-.85 61.574-.85 69.427.43 14.985 1.2 30.375 19.04 39.48 30.06 19.506 23.63 37.969 49.63 55.939 74.51a8440 8440 0 0 1 66.103 91.69c12.22 17.29 32.59 48.77 45.51 63.44a150.2 150.2 0 0 0 30.94 26.57c-2.45 14.94-8.35 44.13-13.06 57.66-22.74 3.06-72.46 4.36-90.27-10.84-24.454-20.85-50.124-59.23-69.501-85.33l-104.342-141.72c-14.5-17.92-27.341-38.37-42.255-56.61 3.598-16.39 8.065-33.47 12.029-49.86Z"/><path fill="rgb(181,3,6)" d="M814.101 1148.45c9.56-.85 61.574-.85 69.427.43-6.313.46-14.487.37-20.205 1.71-3.416 11.7-2.297 24.68-3.753 36.69-2.679 22.08-8.053 43.85-10.157 66.04-.105 1.11-4.215 1.53-5.086 1.6-14.5-17.92-27.341-38.37-42.255-56.61 3.598-16.39 8.065-33.47 12.029-49.86Z"/><path fill="url(#g)" d="M675.583 1236.48c32.068-.79 64.885.11 97.134-.44-36.449 162.88-24.083 272.44-231.934 258.19-8.019-.54-19.861 0-28.283-.01-33.189.19-66.766-.67-99.844.01 7.435-22.05 9.011-47.6 16.313-69.69 1.874-5.67 33.364-4 39.551-3.99l74.136.27c62.175.24 81.722.8 96.391-69.64 6.216-29.84 13.89-80.99 21.966-112.43.656-2.55 11.291-2.24 14.57-2.27Z"/><path fill="url(#h)" d="M1224.77 1145.41c4.58-.51 12.39.19 17.72-.21 25.39-1.92 50.22.66 75.27.77-1.82 13.83-6 30.44-8.92 44.44l-12.39 62.25c-16.19 80.37-32.88 160.65-50.07 240.81l-14.13.38c-12.99.34-87.52 1.87-93.76-1.53.44-7.13 3.68-18.87 5.31-26.3 2.91-13.73 5.74-27.47 8.48-41.23 17.93-91.87 38.34-184.74 57.32-276.12.62-2.97 12.76-3.14 15.17-3.26Z"/><path fill="url(#i)" d="M1072.42 1147.64c27.88 1.02 79.81 1.71 107.33-.08-3.94 14.62-8.24 42.52-11.67 58.94l-28.17 133.51c-4.25 19.5-7.53 37.12-12.56 56.73-7.15-4.86-19.79-13.62-25.42-19.52-17.82-18.67-48.04-55.76-57.36-79.16-2.06-9.42 4.95-38.56 7.33-49.54 4.22-33.78 16.06-69.19 20.52-100.88Z"/><path fill="rgb(181,3,6)" d="M1044.57 1298.06c-2.06-9.42 4.95-38.56 7.33-49.54 1.98 9.41-1.67 14.83-2.34 23.83-.33 4.52 2.78 9.44 1.25 14.33-6.93 3.84-3.47 4.96-6.24 11.38Z"/><path fill="url(#j)" d="M791.782 1248.17c18.37 8.26 83.469 82.9 85.683 100.35 2.231 17.58-19.724 126.47-27.637 142.19-4.474 4.07-10.48 3.2-16.578 3.19-25.645.29-65.388-2-89.554.65 2.909-30.94 14.711-76.82 20.645-108.98 8.24-44.67 16.258-93.49 27.441-137.4Z"/><path fill="url(#k)" d="M975.558 1516.47c13.599 0 30.312-.36 43.032 4.21 15.56 6.14 23.94 17.83 23.57 34.38-.6 26.77-17.48 43.58-41.43 52.63 2.34 7.68 9.14 22.28 12.49 30.29 4.37 10.46 7.81 20.7 12.01 30.97-41.069.13-32.89 5.8-47.76-34.71a1574 1574 0 0 1-8.329-24.52l-16.385-.51c-1.961 11.59-8.132 48.3-12.452 57.42-3.965 3.11-21.09 2.67-27.317 2.96 3.222-27.7 11.63-62.12 16.213-90.11 1.638-10 9.586-51.57 12.601-59.83 4.45-4.03 26.271-3.08 33.757-3.18Z m-17.768 71.01c13.853-.08 29.353 1.53 40.928-6.04 8.282-7.7 12.192-11.08 12.832-23.22 1.3-24.65-28.998-17.84-45.112-19.63-2.627 12.9-8.037 36.65-8.648 48.89Z"/><path fill="url(#l)" d="M797.302 1516.48q9.67 0 19.334.36c26.302 1.05 52.642 10.68 50.251 41.56-3.643 47.03-54.34 54.29-90.272 50.83-1.7 7.71-2.983 15.71-4.334 23.51-4.718 34.66-.022 36.53-34.929 36.12 5.807-25.48 9.177-56.24 14.299-82.44 4.035-20.64 10.36-49.3 12.346-69.42 10.847-.39 22.397-.37 33.305-.52Z m-15.982 71.19c12.528-.24 29.988.9 40.367-5.84 11.52-11.82 22.099-24.07 6.682-38.66-.854-.8-1.731-1.57-2.63-2.32-14.087-2.55-22.773-.98-35.751-2.11-3.804 11.96-6.176 35.56-8.668 48.93Z"/><path fill="url(#m)" d="M594.937 1146.46c64.596.01 130.041 3.78 195.124.18-1.823 7.17-2.93 16.85-4.728 24.58-2.953 12.68-6.01 22.85-10.166 35.13-25.404 3.45-81.718-.46-107.522-1.39-23.365-.84-74.022-40.24-93.878-55.93 8.234-1.79 12.663-2.05 21.17-2.57Z"/><path fill="url(#n)" d="M1505.74 1514.39c19.5-1.15 38.6 4.44 49.23 22.1 4.46 7.42 5.47 14.9 7.14 23.25-10.48.07-18.87.64-29.26 1.46l-1.77-3.76c-5.54-11.86-16.03-22.22-28.92-19.52-26.26 5.49-28.62 27.22-3.88 37.81 19.11 9.33 50.8 18.76 53.18 44.09 3.15 33.42-22.22 49.91-51.53 52.09-33.35 1.27-56.65-11.73-60.32-47.32 9.96-.66 19.85-.44 29.83-.36 3.65 16.62 9.17 24.75 27.93 24.02 7.72-.29 14.97-3.75 20.06-9.55 21.23-24.64-41.94-37.38-52.63-49.17-6.58-7.26-12.33-11.57-12.65-22.55-1.1-36.98 20.76-49.15 53.59-52.59Z"/><path fill="url(#o)" d="M1321.43 1515.31c22.13-3.02 45.7 2.73 56.26 24.74 2.87 5.98 7.44 13.95 2.28 19.64-5.78 1.21-19.29.77-25.78.76-7.32-11.95-10.4-22.72-27.53-22.2-10.3.31-26.24 8.56-24.86 21.01 2.34 8.94 21.62 18.47 29.15 21.39 33.84 13.12 56.12 33.56 33.68 70.64-7.55 12.46-26.93 18.16-41.47 20.29-11.38.85-28.18-1.08-38.28-6.62-8.86-4.87-26.72-28.35-20.45-38.4 5.39-4.26 18.82-2.44 25.74-1.83 3.22 7.55 6.46 18.16 14.43 21.27 17.46 6.81 31.75 1.07 39.85-14.7l-3.33-11.94c-21.39-17.91-64.61-21.91-68.33-52.02-4.15-33.61 20.55-47.94 48.64-52.03Z"/><path fill="url(#p)" d="M662.239 1517.27c10.784-1.3 24.013-1.26 35.042-1.52-10.631 11.6-23.519 30.26-34.28 42.92-7.237 8.52-23.713 27.45-28.373 35.39 3.787 18.92 26.488 53.48 31.13 74.39-9.878.86-19.675.75-29.566.31-10.899-17.79-16.062-31.26-23.515-50.55-8.757 12.83-23.605 31.51-33.552 43.86-8.05 9.98-26.722 7.92-39.873 8.01 17.109-24.83 41.83-53.27 60.847-77.16-6.091-15.82-11.632-29.29-18.626-44.65-3.243-7.12-12.1-26.11-13.672-32.21 10.368.39 20.745.55 31.121.46 9.521 14.25 15.493 34.92 22.437 51.11 5.201-7.74 34.949-45.22 40.88-50.36Z"/><path fill="url(#q)" d="m1210.51 1516.54 2.5.45.67 1.47c-1.06 6.9-2.43 14.41-6.55 20.07-4.91 3.32-48.61 1.19-56.53.32-2.33 14.18-5.78 27.87-7.17 42.27 18.32-.67 36.64-1.03 54.97-1.09-9.87 20.98-1.43 26.32-29.16 25.02-11.07-.52-20.07.92-31.72-1.64-1.73 12.93-3.88 29.78-7.02 42.32 16.18.76 36.3.07 52.74-.14 1.95-.16 3.46-.18 5.4-.22l1.29 1.51c.55 6.53-2.69 13.91-4.77 20.49-13.05 3-69.55 1.83-86.58 1.8 5.84-50.76 19.14-101.72 26.41-151.96 22.31-1.61 61.8-.57 85.52-.67Z"/><path fill="url(#r)" d="m491.705 1516.5 4.985-.27 1.299 1.58c.356 5.91-2.212 15.36-3.389 21.85-18.036.82-39.782.18-58.057-.07-2.482 13.2-4.198 27.88-6.015 41.29 17.223-.51 34.707-.65 51.958-.92-1.853 8.64-2.858 15.38-4.01 24.17-17.814.32-35.633-.14-53.407-1.36-4.04 14.82-5.073 27.97-6.623 43.17 16.636.29 40.594.31 56.789-.88l1.259.18.917 1.39c-.485 6.8-2.743 14.51-4.453 21.2-9.341 1.75-24.059 1.26-33.777 1.35-18.367.17-36.66-.33-55.051.42 8.694-35.62 13.149-74.66 20.652-110.73 2.723-13.09 5.277-28.73 6.369-41.98q40.278.03 80.554-.39Z"/><path fill="rgb(15,72,125)" d="M605.137 1205.4c16.735 12.78 29.135 22.84 45.562 36.06-11.654 8.8-24.28 16.94-36.435 25.03-7.518 5.01-15.765 9.53-22.692 15.28-1.334 1.1-.454.79-2.494.66-2.288-6.04 1.314-22.33 2.502-29.43-20.078-.51-43.494.19-63.83.36-15.59.15-59.372 1.37-71.936-1.07-3.58-4.5-2.02-18.73 2.138-23.03 14.237-5.88 118.525-1.63 139.376-1.37 1.806-6.63 4.414-16.83 7.809-22.49Z m-81.939 78.47c38.55-.06 41.513 10.83 68.751 34.19a499 499 0 0 0 26.794 21.02c-25.41 16.63-51.332 39.73-78.421 52.69-7.384 1.22-27.465 4.98-32.089-1.42l.621-1.68a2926 2926 0 0 0 39.544-27.81c8.358-6.02 25.089-19.4 33.335-22.57-13.739-8.11-25.691-21.01-38.398-30.92-6.948-5.41-19.997-14.29-20.137-23.5Z"/><path fill="rgb(15,72,125)" d="M458.895 1283.14c24.21-.13 29.46 5.19 47.212 20.49 12.742 10.98 26.182 24.34 39.374 34.4-20.132 13.46-56.013 43.62-77.767 52.82-6.538 1.98-24.758 4.14-30.364.29l-.333-1.95c5.057-5.37 15.094-11.5 21.172-16.12 15.537-11.8 34.634-23.69 48.617-37.22-6.966-6.65-53.522-44.89-54.786-49.95 2.282-2.71 2.334-1.9 6.875-2.76Z"/><path fill="rgb(0,0,0)" fill-opacity=".012" d="M1071.83 466.252c3.25-.488 3.92-1.377 6.47-3.415-1.65 8.2-1.6 25.66-1.68 34.774-1.65-6.119-1.21-13.084-1.19-19.461-1.68 9.1.17 56.661-1.7 61.384l-1.44.257c-.6-7.483-.17-20.482-.22-28.408-.09-14.964-.35-30.201-.24-45.131Z"/><path fill="rgb(0,0,0)" fill-opacity=".427" d="M513.285 855.723c2.782 2.076 2.605 4.281 5.257 5.842.541-2.357.88-4.172 2.094-6.296-.022 16.068-.273 35.663 1.033 51.633-2.014-2.628-2.816-6.07-3.169-9.342-1.233 3.576-1.712 4.553-3.963 7.58 1.363-8.525.768-40.902-1.252-49.417Z"/><path fill="rgb(0,0,0)" fill-opacity=".329" d="M766.556 572.317c3.667-.2 7.92-.943 10.816.728-9.94 8.016-30.666 2.994-40.688 10.1-3.909.533-6.524 1.378-10.04-.223l.158-1.219c10.205-4.838 26.741-2.827 39.754-9.386Z"/><path fill="rgb(0,0,0)" fill-opacity=".106" d="M1277.81 832.204c7.65-.348 43.37.4 49.05 2.571l-1.85 1.464c-8.06-.62-45.63.418-49.42-2.321z"/><path fill="rgb(0,0,0)" fill-opacity=".129" d="M1291.91 723.139c5.88.132 27.05.719 30.64 4.317l-1.49 1.162c-7.77-.971-26.98-.453-31.33-3.681z"/><path fill="rgb(0,0,0)" fill-opacity=".404" d="M1289.49 617.636c5.11 1.26 37.56 7.435 38.94 8.628-5.13 2.86-26.93-4.36-37.21-3.803l.98-1.814z"/><path fill="rgb(0,0,0)" fill-opacity=".231" d="M1291.22 622.461c-7.87.032-16.89-1.145-24.26-3.859l-.6-1.515 1.13-1.493 2.61-.331c7.61 4.737 9.87 2.492 19.39 2.373l2.71 3.011z"/><path fill="rgb(0,0,0)" fill-opacity=".169" d="M1252.48 612.384c3.65-1.28 8.1.543 9.45 4.099-2.8 1.851-2.55 1.176-6.68 1.084-3.54.112-10.86.993-12.72-2.34 2.64-2.226 6.4-2.318 9.95-2.843Z"/><path fill="rgb(0,0,0)" fill-opacity=".102" d="m836.461 527.892 1.859.743-.55 1.543c-10.443 5.318-13.57 3.718-23.782 6.346l-.838.222c-2.024.703-1.044.721-2.939.085 5.087-6.783 15.881-4.135 26.25-8.939Z"/><path fill="rgb(0,0,0)" fill-opacity=".263" d="m703.384 587.009 1.06.372.413 1.423c-1.739 1.638-15.814 5.43-20.638 7.472-.869-.973-.868-1.218-1.482-2.395 2.032-2.32 16.273-5.547 20.647-6.872Z"/></svg>